<svg width="260" height="260" xmlns="http://www.w3.org/2000/svg">
  <g fill="none" fillRule="evenodd">
    <g stroke="#444A59" stroke-width="1.4">
      <path d="M83.08 21.67V43.4h-16.8L61 33.8s1.6-15.1 22.08-12.15z"/>
      <path d="M78.93 26.4v6.2l-13.33.35c2.14-5.63 6.6-7.8 13.33-6.55z"/>
      <path d="M78.8 36.36h-4.92" stroke-linecap="square"/>
    </g>
    <path d="M203.36 34.9h.02v.3c0 2.33-1.3 4.28-3.18 4.9v1.7c0 .1-.1.3-.3.3h-14.1c-.1 0-.3-.1-.3-.3v-4.3c0-.1.1-.3.3-.3h.1c1.5 2.1 4 3.5 6.9 3.5 2.9 0 5.4-1.4 6.9-3.5h.2c.2 0 .3.1.3.3v1.8c1.43-.6 2.43-2.2 2.43-4.1v-.23c-.52-.13-.87-.6-.83-1.15.04-.53.46-.96 1-1 .52-.06 1.02.28 1.16.8.14.5-.1 1.05-.6 1.28zM192.6 40c-2.07.03-4.06-.77-5.54-2.2-1.5-1.46-2.33-3.43-2.36-5.5.03-2.07.87-4.04 2.36-5.5 1.48-1.43 3.47-2.23 5.54-2.2 2.07-.03 4.06.77 5.54 2.2 1.5 1.46 2.33 3.43 2.36 5.5-.03 2.07-.87 4.04-2.36 5.5-1.48 1.43-3.47 2.23-5.54 2.2zm0-1c3.8 0 6.9-3 6.9-6.7-.03-1.8-.77-3.52-2.06-4.78-1.3-1.26-3.04-1.95-4.84-1.92-3.8 0-6.9 3-6.9 6.7.03 1.8.77 3.52 2.06 4.78 1.3 1.26 3.04 1.95 4.84 1.92zm0-4.17c-1.4 0-2.53-1.13-2.53-2.53s1.13-2.53 2.53-2.53 2.53 1.13 2.53 2.53-1.13 2.53-2.53 2.53zm0-.86c.92 0 1.67-.75 1.67-1.67 0-.92-.75-1.67-1.67-1.67-.92 0-1.67.75-1.67 1.67 0 .92.75 1.67 1.67 1.67zm-8.42-5.02l-.96-.3c.8-2.47 2.75-4.4 5.23-5.13l.3.96c-2.17.64-3.88 2.32-4.57 4.47zm-2-1.3l-.96-.3c.92-2.9 3.22-5.15 6.13-6.02l.3.96c-2.6.7-4.64 2.7-5.47 5.3z" fillRule="nonzero" fill="#444A59"/>
    <g transform="translate(101 21)">
      <path d="M10.74 5.9h1.16c.93-.02 2.1-.1 2.58.9.42.82-.07 1.47-.74 1.95.42.34.97.64 1.05 1.2 0 .5-.2 1-.5 1.32-.4.38-.9.48-1.5.47h-2.1V5.9zm1.28 4.66c.46 0 1.32.14 1.35-.56.03-.7-.9-.6-1.35-.62v1.18zm0-2.28c.33-.02.78.05 1.03-.17.23-.2.26-.6.03-.8-.15-.1-.84-.3-1-.1-.16.2-.05 1-.05 1.2zM4.8 11.76c.03-.1.05-.18.1-.25L6 9.1l1.4-3c.02-.04.05-.1.1-.14.1-.13.27-.1.34.04l1.2 2.57c.46 1 .9 2.04 1.36 3.05.08.17.08.2-.12.2h-.96c-.12 0-.18-.06-.22-.16l-.3-.6c-.03-.1-.07-.14-.17-.14h-2c-.1 0-.15.03-.2.1-.08.2-.2.4-.3.63-.03.1-.1.13-.2.13H4.77zM7.6 8.4l-.58 1.3h1.2l-.6-1.3zm11.42 1.7c.07.8-.68 1.52-1.43 1.7-.5.1-.9.08-1.4-.02-.3-.08-1-.28-1.2-.57-.2-.2.1-.5.3-.7.3-.4.6 0 1 .1.3.1.7.3 1 0 .2-.4-.1-.7-.4-.9-.8-.5-1.6-.6-1.9-1.6-.3-.8.1-1.6.9-1.9.8-.4 1.8-.1 2.5.3.4.3.3.4 0 .8-.4.5-.5.4-1 .2-.3-.1-1-.4-1.2 0-.3.5.4.8.7.9.9.5 1.7.9 1.8 2z" fill="#444A59" fillRule="nonzero"/>
      <circle stroke="#444A59" stroke-width="1.4" cx="12" cy="9" r="9"/>
      <path d="M2.47 1.8C-.76 6.03-.77 11.94 2.43 16.2M21.8 16c3.02-4.2 3-9.97-.15-14.15" stroke="#444A59" stroke-width="1.4"/>
    </g>
    <path d="M145.63 115.25c-2.02-4.02-1.86-6.3-.16-7.16.44-.3.9-.3 1.26-.3h.1l3.62.7 1.74-2.1c.2-.5.7-.8 1.2-.9-.9-1-1-2.4-.2-3.5.7-1.1 2.1-1.5 3.3-1 1.2.5 1.9 1.7 1.7 3-.2 1.2-1.3 2.2-2.5 2.3.4.7.4 1.7-.2 2.3l-4.5 5.8c1.5-.1 2.6-.1 2.6-.1l4.7-8.4-.3-2.3c1-1.8 1.7-1.5 3.4-1.8 1.7-.3 1.3 1.7 1.3 1.7l-8.3 14.5s-14.7 1.9-13.7-1c.3-1.1 2.3-1.77 4.5-2.18zm1.04-.17c1.08-.14 2.2-.24 3.2-.3l4.95-6.5c.4-.44.28-1.2-.2-1.55-.26-.18-.58-.25-.9-.2-.3.06-.57.24-.74.5l-2.17 2.67v.02-.02l-4-.88c-.2 0-.5.04-.7.18-1.1.55-1.2 2.33.8 6.1v-.02zm8.82-9.53c.9 0 1.7-.8 1.7-1.78s-.8-1.78-1.8-1.78-1.8.8-1.8 1.7c0 1 .8 1.8 1.8 1.8zm-.6-78.9c-.1.95-.3 1.87-.8 2.67.8-.96 1.8-1.72 2.9-1.42 2.4.7-1.2 8.3-1.8 8.6l-2.9-4.3s.4-.93 1.1-1.93c-1.6 1.66-4 2.2-6.1 1.37-2.1-.84-3.5-2.88-3.5-5.14 0-2.65 1.9-4.93 4.5-5.4 2.6-.5 5.2.96 6.1 3.44.3-.88 1.2-1.43 2.1-1.33.9.1 1.7.8 1.9 1.8.1 1-.4 1.9-1.2 2.3-.9.4-1.9.2-2.5-.5zm-4.6 6.65l2.7 4s-3-.2-6-1.8l-3.4 5.5c-.5.8-1.5.9-2.2.4-.4-.4-.6-1.2-.2-1.9l4.1-6.7c.3-.4.8-.7 1.3-.5l3.7 1zm-.9-2.3c2.5 0 4.5-2 4.5-4.5s-2-4.5-4.5-4.5-4.5 2-4.5 4.5 2 4.5 4.5 4.5zm14-5.8c.3.3.2.8-.2 1l-5.2 3.3c0-.6-.1-1.3-.3-1.5l4.7-3c.3-.2.8-.1 1 .2zm-12.6 8c-.2-.2-.2-.5-.1-.72.1-.23.3-.38.6-.4.2-.02.5.1.6.32l5.7 8.5c.2.33.1.78-.2 1-.4.22-.8.13-1-.2l-5.7-8.5z" fillRule="nonzero" fill="#444A59"/>
    <path d="M27.3 109.1l1.82 1.24c.74.55 1.05.95.8 1.5-.3.6-.9.6-1.86.28-.8-.3-5.33-2.88-6.05-2.07-.4.24-.9 1.37-.8 2.67.1 1.75 1.1 3.57 3.2 5.2 1.6 1.3 7.1-4 7.2-4.1.4-.25.9-.15 1 .3.2.82-2.6 7.1-2.3 7.54.3.55 1.5 1.02 2.8.95 1.8-.1 3.6-1 5.3-3l.2-.2c1-1.4.3-2.9-1.6-4.7-.4-.4-2.3-2.1-2.4-2.3-.1-.5.3-.7.8-.7.9 0 6.4 2.6 7 2.4.5-.2 1-1.3 1-2.7-.1-1.7-1-3.6-2.9-5.2-1.5-1.3-3.1-.7-5.1 1.5-.4.5-2.02 2.3-2.22 2.4-.4.2-.83 0-.96-.4-.2-.7 2.8-6.4 2.07-7.3-.3-.5-1.5-1-2.8-.8-1.7.2-3.5 1.2-5.1 3.2-1.6 2-.8 3.2 1.5 4.8zm84.83 123.65c.37 0 .67-.3.67-.68 0-.4-.3-.7-.67-.7-.24 0-.47.14-.6.35-.1.2-.1.48 0 .7.13.2.36.33.6.33zm-7.5-4.92c.1.04.2.07.34.1.9.26 1.78.4 2.6.36.56-.1 1.07-.2 1.5-.4.64-.4 1.08-1.1 1.3-2.2.13-.7.17-1.4.15-2.1-1.95.2-3.5 1-4.68 2.3-.48.5-.87 1.1-1.17 1.6l-.05.1zm1.28 9.9c.2-.25.4-.52.6-.8.6-1 .9-1.97 1-2.84v-.7c-.1-.8-.8-1.5-1.9-2l-1.5-.6h-.1c-.4 2.2.1 4.1 1.2 5.8.3.3.6.7.9 1zm9.9 1.7c-.3-.37-.6-.73-.9-1.07-.9-.88-1.8-1.44-2.7-1.55-.8-.1-1.8.5-2.7 1.6l-.8 1.1c2.3 1.3 4.5 1.2 6.6.3l.6-.2zm4.4-8.92v.1c-.5.2-1.1.5-1.6.8-.9.6-1.6 1.2-1.9 2-.1.3-.2.7-.1 1.1.1.7.5 1.5 1 2.3.2.3.4.6.6.8.7-.6 1.1-1.2 1.5-1.9.9-1.6 1-3.3.7-4.9zm-6.8-6.7c.1.7.2 1.5.4 2.3.3.9.7 1.6 1.2 2.1.4.4 1.1.6 1.8.5.7 0 1.4-.2 2.1-.4l.5-.2c-.7-1.4-1.6-2.4-2.8-3.1-1.1-.6-2.2-.9-3.1-1z" stroke="#444A59" stroke-width="1.4"/>
    <circle stroke="#444A59" stroke-width="1.4" cx="112" cy="232" r="11.3"/>
    <path d="M61.72 147.78l.1 8.48 3.33-.06-1.3-8.42h-2.13zm3.8-1.02l1.5 9.4.1-.02 2.38-.27c2.6-.3 5.72-.62 9.32-.97 4.35-.43 6.04-1.98 6.38-4.7.1-.63.1-1.17.07-2.27 0-.64-.02-.87 0-1.18.1-3.22-2.9-5.28-10.02-5-3.52.16-6.1 1.13-7.87 2.65-.67.56-1.18 1.17-1.55 1.77-.15.24-.26.45-.32.6zm17.4 1l-.03.32c-.2 3.82-1.1 4.73-5.9 4.7h-1.3c-4.7 0-5.4-.47-5.6-4.72v-.32c-.1-.48-.1-.75-.1-1.08.1-1.82 1.5-2.85 4.5-2.98 5.7-.24 8.3.7 8.2 4.1zM23 26.54h18.15c1.1 0 2 .9 2 2v13.72c0 1.1-.9 2-2 2H23c-1.1 0-2-.9-2-2V28.54c0-1.1.9-2 2-2zm14.62 0H26.54c0-3.06 2.48-5.54 5.54-5.54s5.54 2.48 5.54 5.54z" stroke="#444A59" stroke-width="1.4"/>
    <path d="M35.78 41.48h-.1c-.58.22-1.26-.1-1.48-.78l-.8-2.54v-.22h-2.95v2c0 .65-.57 1.2-1.25 1.2h-3.63c-.68 0-1.25-.55-1.25-1.2 0-.67.57-1.23 1.25-1.23h2.5v-1.3c-.46-.4-.68-.9-.68-1.4v-.1c0-1 .7-1.9 1.9-1.9h5.2c1 0 1.9.8 1.9 1.9v.1c0 .6-.2 1-.6 1.4v.1l.8 2.6c.2.6-.2 1.2-1 1.6zm1.2-7.2c-1.23 0-2.22-.98-2.22-2.2 0-1.23 1-2.22 2.2-2.22 1.23 0 2.23 1 2.23 2.22 0 1.22-1 2.2-2.3 2.2z" fill="#444A59" fillRule="nonzero"/>
    <g stroke="#444A59" stroke-width="1.4">
      <path d="M73 242c2.66 0 5-4.67 5-10.5S75.66 221 73 221s-5 4.67-5 10.5 2.34 10.5 5 10.5z"/>
      <path d="M73.26 221H66c-2.66 0-5 4.67-5 10.5s2.34 10.5 5 10.5h7.26"/>
      <path d="M73 238c.98 0 2-2.88 2-6.5s-1.02-6.5-2-6.5-2 2.88-2 6.5 1.02 6.5 2 6.5z"/>
    </g>
    <path d="M234.7 32.6l.8-.7c.8-.6.9-1.7.3-2.5l-4.8-6c-1.7-2.2-4.8-2.5-7-.8l-.6.5c-2.2 1.7-2.5 4.9-.8 7l4.3 5.4c.9 1.1 2.5 1.3 3.7.4l1-.8 1.7 2h1.9l-.3 2 2 .1-.3 2.3 3.4.6.4-2.8-5.7-6.7z" stroke="#444A59" stroke-width="1.4"/>
    <path d="M230.1 26.6l-3.9 3.4c-.4.2-.8.2-1.1-.1l-.7-.8c-1.1-1.3-.9-3.2.3-4.2l.5-.5c1.2-1.1 3.2-.9 4.2.3l.7.8c.3.3.3.8 0 1.1z" fill="#444A59" fillRule="nonzero"/>
    <g stroke="#444A59" stroke-width="1.2" transform="translate(60 61)">
      <circle cx="11.79" cy="8.03" r="6.68"/>
      <path d="M5.63 14.2c-1.66-1.47-2.7-3.77-2.7-6.27 0-2.5 1.04-4.7 2.6-6.16"/>
      <path d="M3.97 15.86C1.87 14.1.63 11.26.63 8.14.63 5.1 1.88 2.3 3.86.52m14.1 13.58c1.66-1.47 2.7-3.77 2.7-6.27 0-2.5-1.04-4.7-2.6-6.16"/>
      <path d="M19.62 15.86c2.08-1.77 3.34-4.6 3.34-7.72 0-3.03-1.26-5.84-3.24-7.62"/>
    </g>
    <path d="M69.4 72.37v-7h2.3c.82 0 1.45 0 1.66.12.4.1.73.3 1.04.7.3.4.42.8.42 1.3 0 .4-.1.8-.2 1-.12.3-.32.5-.64.7-.2.2-.52.3-.73.3-.3.1-.83.1-1.46.1h-1v2.6h-1.4zm1.35-5.74v2h.73c.52 0 .94 0 1.15-.12.2-.1.3-.2.4-.3.12-.1.22-.3.22-.5s-.1-.4-.2-.6c-.1-.2-.32-.3-.53-.4h-1.77z" fill="#444A59" fillRule="nonzero"/>
    <path d="M22.44 63.75L25 65v-2c0-1.1.9-2 2-2h14c1.1 0 2 .9 2 2v10c0 1.1-.9 2-2 2H27c-1.1 0-2-.9-2-2v-2l-2.56 1.25c-.5.25-1.1.04-1.34-.45-.07-.14-.1-.3-.1-.44v-6.72c0-.55.45-1 1-1 .15 0 .3.04.44.1z" stroke="#444A59" stroke-width="1.2" stroke-linejoin="round"/>
    <path fill="#444A59" fillRule="nonzero" d="M36 65.93L34 64v2.02h-4v3.86h4V72l2-2.02 2-2.03"/>
    <path d="M109.7 66.8l-.1-1c.7-.4 1.2-1.2 1.2-2 0-1.3-1.1-2.4-2.4-2.4-1.3 0-2.4 1.1-2.4 2.4 0 .9.5 1.6 1.2 2v1h-.1c-3.3.7-4.3 5.2-3.8 8.5.4 3.3 2.4 7.7 2.4 7.7h2s-2.1-3.2-1.7-4.9h5.1c.4 1.7-2 4.9-2 4.9h2.1c1.6-3.4 2.2-5.7 2.5-7.7.8-8.1-4-8.5-4-8.5z" stroke="#444A59" stroke-width="1.2"/>
    <path fill="#444A59" fillRule="nonzero" d="M100 78.8l14-14.5 1.2 1.3L101.3 80"/>
    <path d="M103.7 75.8s8.1-3.9 14.3 2.4l-1.4 1.4s-4.9-5-12.6-1.8l-.3-2z" fill="#444A59" fillRule="nonzero"/>
    <g stroke="#444A59">
      <path d="M117 101v16m5-16v16" stroke-width="2"/>
      <path d="M111.75 109.83l-9.2 6.13c-.45.3-1.08.2-1.38-.27-.1-.2-.17-.4-.17-.6v-12.3c0-.6.45-1 1-1 .2 0 .4 0 .55.1l9.2 6.1c.46.3.6.9.28 1.3-.07.1-.17.2-.28.3z" stroke-width="1.4" stroke-linecap="round" stroke-linejoin="round"/>
    </g>
    <g transform="translate(221 101)">
      <circle stroke="#444A59" stroke-width="1.2" cx="12" cy="12" r="12"/>
      <path d="M12.97 7.28c-1.14-1.45-3.24-1.7-4.7-.57-1.44 1.2-1.7 3.3-.57 4.7.1.1 2.36 3 2.36 3 .65.9 1.85 1 2.7.4l.22-.2.67.8 1 .2-.02 1.1 1.04.2-.1 1.5 2.06.3.2-1.7-2.9-3.7.07-.1c.82-.6.96-1.8.3-2.7l-2.34-3zm-.78 1.7l-2.7 2.07c-.2.16-.5.13-.7-.08l-.4-.46c-.6-.9-.4-2.1.5-2.8.9-.7 2.1-.6 2.9.3l.3.4c.1.2.1.6-.1.7z" fill="#444A59" fillRule="nonzero"/>
    </g>
    <g stroke="#444A59" stroke-width="1.4">
      <path d="M114.8 148v-4.5c0-1.1-.9-2-2-2h-5.2c-1.1 0-2 .9-2 2v4.5l-4.6 5h18.4l-4.6-5z" stroke-linejoin="round"/>
      <path d="M111.2 155.32s-2 1.3-1.1 4.22c.9 2.94-1 3.86-1 3.86m-2.3-8.08s-2 1.3-1.1 4.22c.9 2.94-1 3.86-1 3.86m11.1-8.08s-2 1.3-1.1 4.22c.9 2.94-1 3.86-1 3.86"/>
    </g>
    <path d="M141.8 144.6s9-6.6 21.3-.2l-4.5 8.3s-5.4-3.4-11.9 0l-4.9-8.1z" stroke="#444A59" stroke-width="1.4"/>
    <path d="M148.5 147.4s-.1 3.6-.8 4.6c-.7 1-.4 3.9-.4 3.9m5.5-8.5s-.1 3.6-.8 4.6c-.7 1-.4 3.9-.4 3.9m5.8-8.5s-.1 3.6-.8 4.6c-.7 1-.4 3.9-.4 3.9" stroke="#444A59" stroke-width="1.4"/>
    <path d="M148.2 146l1.9 2.5h-3.6l1.7-2.5zm9.1 0l1.9 2.5h-3.6l1.7-2.5zm-4.6 0l1.9 2.5H151l1.7-2.5zm39.7 8.1h-.9v-5.4h5.2c.3 0 1.2.4 1.4.8l1.8 4.6h-1.1l-.4-.6c-.4-.6-.9-.6-1.5-.6h-2.5c-.6 0-1.1 0-1.5.6-.1 0-.5.6-.5.6zm-1-7.9l2.5-.2c.3-.1.4-.4.4-.6l.4-2.4c.1-.4-.2-.7-.6-.8-.4 0-.7.2-.8.6l-.3 1.9h-7.2l-.4-2c0-.3-.3-.6-.7-.6-.4.1-.6.5-.5.8l.4 2.4c0 .3.1.6.3.7l2.5.1v1.4c-1 .1-2 .7-2.4 1.5l-1.5 2.8h-1.8c-.4 0-.7.3-.7.7v.5c0 .6.5 1.1 1.1 1.1h.1l-.2.3c-.7 1.3-1.1 5.2.1 7v1.9c0 .4.4.7.7.7h1.1c.4 0 .7-.3.7-.7v-1h15v1c0 .4.3.7.7.7h1.1c.4 0 .7-.4.7-.7v-2c1.2-1.9.8-5.7.1-6.9l-.2-.3h.1c.6 0 1.1-.5 1.1-1.1v-.5c0-.4-.3-.7-.7-.7h-1.8l-1.5-2.8c-.4-.8-1.5-1.5-2.5-1.5h-5.2l-.1-1.3zm7.9 10.5c.8 0 1.2.6 1 1.4-.2.8-1 1.4-1.8 1.4s-1.3-.6-1.1-1.4c.3-.9 1.1-1.4 1.9-1.4zm-14.4 0c.8 0 1.6.6 1.9 1.4.2.8-.3 1.4-1.1 1.4s-1.6-.7-1.8-1.5c-.3-.8.2-1.3 1-1.3zm4 2.3h6.3c.2 0 .4.1.4.4 0 .3-.2.4-.4.4h-6.3c-.2 0-.4-.1-.4-.4 0-.3.2-.4.4-.4zm-1.5-10.3v5.4h-3.1l1.8-4.6c.2-.3 1-.7 1.3-.8zm1.8 5.4v-2.2h.6v2.2h-.6zm.3-13.1c.9 0 1.6.7 1.6 1.6 0 .9-.7 1.5-1.6 1.5-.8 0-1.5-.7-1.5-1.5s.7-1.6 1.5-1.6zm6.2 8.2c.9 0 1.5.7 1.5 1.6 0 .9-.6 1.5-1.5 1.5s-1.6-.6-1.6-1.5.7-1.6 1.6-1.6z" fill="#444A59" fillRule="nonzero"/>
    <path d="M157.9 221.5c0 3.6-2 3.6-2 7.2s2 3.6 2 7.2-2 3.6-2 7.2" stroke="#444A59" stroke-width="1.4" stroke-linecap="round"/>
    <path d="M152.6 226.1h8.9v1.4h-8.9zm0 9.9h8.9v1.2h-8.9zm0-5h8.9v1.4h-8.9z" fillRule="nonzero" fill="#444A59"/>
    <path d="M149 222.9c-.1-.4-.6-.6-.9-.4-1.9.9-6.6 3.7-6.6 9.4.1 5.8 4.7 8.6 6.2 9.5.4.2.8 0 1-.4 1-2.3 3.3-10.6.3-18.1z" stroke="#444A59" stroke-width="1.4" stroke-linecap="round"/>
    <g transform="translate(181 221)">
      <circle fill="#444A59" fillRule="nonzero" cx="8" cy="7" r="3"/>
      <path d="M8 22c5.33-6.3 8-10.95 8-13.92C16 3.62 12.42 0 8 0S0 3.62 0 8.08c0 2.97 2.67 7.6 8 13.92z" stroke="#444A59" stroke-width="1.4"/>
    </g>
    <path d="M244.96 152.78c0 .9-.72 1.62-1.62 1.62h-20.68c-.9 0-1.63-.73-1.63-1.62v-10.13c0-.9.73-1.63 1.63-1.63h17.97c.9 0 1.62.73 1.62 1.63l2.7 10.13z" stroke="#444A59" stroke-width="1.2"/>
    <path d="M237.43 148.7h-16.4v5.4h19.52l-1.2-3.97c-.26-.85-1.04-1.42-1.92-1.42z" fill="#444A59" fillRule="nonzero"/>
    <path d="M26.2 223.04s6.76-2.57 14.32-2.33l.04 15.7s-1.7 3-4.95 2.8c-3.2-.2-3.9-3.5-1.1-5.1 0 0 2.2-.9 3.3-.3l.1-7.1s-4.2.2-8.8 1.8l-.2 10.5s-1 2.9-4.1 2.6c-3.1-.2-3.6-2.6-2.6-4.4 1.1-1.8 3.9-1 3.9-1l.3-12.8z" stroke="#444A59" stroke-width="1.4" stroke-linecap="round" stroke-linejoin="round"/>
    <path d="M225.55 221.08c-.4.15-.72.44-.88.8-.05.1-.14.4-.2.66l-.18.7c-.1.32-.1.5 0 .74.1.18.1.26.3.4.1.08.2.12.3.14h2.4c1.8 0 2.3 0 2.4-.04.3-.1.6-.52.6-.8 0-.18-.1-.22-.3-1.1l-.2-.68-.2-.22c-.2-.32-.3-.43-.5-.54l-.2-.1-3.5-.02-.2.06zm-2.45 4.7c-.3.07-.58.26-.64.42-.03.1-.54.9-.74 1.2-.1.13-.2.34-.26.46l-.1.23-.03.4c-.02.5 0 .8.1 1.4.05.3.2 1.2.28 1.5l.1.4.1.4.1.4.7 2.6.1.2.2.1c.3.2.4.3.7.3h.2l.2-.1c.2-.1.3-.4.4-.7.1-.4.2-.6.2-1.4 0-.8-.1-1.2-.3-2.5l-.2-1.4-.3-1.3c-.3-1.9-.4-2.4-.3-2.7l.1-.2c.1-.1 0-.2-.2-.1zm1.63.03c-.15.1-.28.3-.32.4 0 .2 0 .6.1 1.5.2 1.2.2 1.2.6 3.1.2 1 .4 2 .4 2.2.1.6.1 1.2.1 1.7 0 .7-.1 1-.4 1.3l-.1.2c0 .1 4.9 0 4.9 0s0-.1-.1-.1c-.3-.4-.5-1.1-.4-2 0-.7.1-.9.6-3.6.5-2.2.7-3.6.7-3.9 0-.2-.1-.5-.3-.6H225l-.08.1zm6.7.1c.02 0 .07.1.1.2l.08.2v.3c0 .4-.1 1.2-.5 3.2l-.6 3.7c0 .5 0 1.5.1 1.7.1.6.4 1 .6 1.1h.2c.3-.1.5-.3.6-.6.1-.2.2-.5.3-.9 0-.1.1-.4.2-.7.2-.5.3-1.3.4-1.7 0-.2.1-.4.1-.6l.2-1 .2-.8.1-.3c.1-.3.1-.7 0-1 0-.2-.1-.6-.3-.8l-.7-1c-.2-.4-.3-.5-.5-.6-.2-.1-.4-.1-.4 0zm-7.1 10.7c-.04.1.07.5.18.7.2.4.5.8.7.9l.1.1h.2c.3-.1.4-.1 2-.1h1.5l.2.1.3.1h.1l.3-.2.3-.3.1-.2c.2-.3.3-.7.3-.8v-.1h-5.9v.1zm-1.46 1.1c-.3.3-.4.5-1.14 2.3l-.57 1.4c-.16.4-.17.5-.12.9.06.5.1.7.25 1 .3.7.8 1 1.6 1h.4l-.2-.3c-.4-.7-.5-1.2-.5-1.7v-.3l.6-1.1.7-1.2-.1-.1c-.4-.3-.7-.7-.8-1.3l-.2-.5-.2.1zm8.6 0l-.08.3c-.1.3-.4.8-.5 1.1l-.3.3-.2.2c0 .1.3.7.9 1.7.1.3.3.5.3.6.1.5 0 1.1-.4 2l-.2.4c0 .1.8 0 1.1-.1.4-.1.8-.5 1-1 .1-.4.2-.7.2-1v-.3l-.6-1.4-.7-1.6c-.1-.3-.3-.6-.4-.7-.2-.2-.4-.3-.5-.2zm-5.43 1.7c-.18 0-.38.1-.45.1-.2.1-.4.3-.6.6l-.6 1.1c-.3.4-.5.8-.5.9-.1.3 0 .9.2 1.4.2.5.3.8.4.9l.1.1h5.2s.4-.8.5-1.1c.2-.5.2-.9.1-1.1 0 0-.2-.3-.3-.6l-.6-1c-.5-.8-.6-.9-1.2-.9H226z" fillRule="nonzero" fill="#444A59"/>
    <path d="M119.42 182.44h-7.64l-4.7 4.47v6.1c0 2.1 1.65 3.8 3.83 3.8h8.6c2.1 0 3.8-1.6 3.8-3.7v-6.8c-.1-2-1.7-3.7-3.8-3.7z" stroke="#444A59" stroke-width="1.2"/>
    <path d="M120.62 187.44h-4.04c-.33 0-.54-.2-.54-.53v-2.1h2.5c1.2 0 2.2 1 2.2 2.2v.6h-.12z" fill="#444A59" fillRule="nonzero"/>
    <path d="M100.55 181.8c.87-.42 1.85-.74 2.83-.74 1.97 0 3.7.96 4.7 2.55" stroke="#444A59" stroke-width="1.2"/>
    <path fill="#444A59" fillRule="nonzero" d="M108.23 180.43l1.85 1.85-3.46 3.46-1.85-1.85z"/>
    <g stroke="#444A59" stroke-width="1.4">
      <path d="M38.27 150.3c0 1.37.03 2.4.04 3.13l.1.86 5.5 5.4.5.5-3.9 3.9-6-5.9h-4.1l-2.7 2.6c-.5.5-1.3.5-1.8 0s-.5-1.3 0-1.8l13.5-13.5c.5-.5 1.3-.5 1.8 0h.1c.5.5.5 1.3 0 1.8l-2.7 2.8zm-15.87 3.88c1.1-7.2 5.3-11.2 12.6-12.04"/>
      <path d="M33.38 140.35l2.12 2-2.12 2M25 153.37l-2.62 1.3-1.15-2.67"/>
    </g>
    <g stroke="#444A59" stroke-width="1.2" stroke-linecap="round" transform="translate(61 189.455)">
      <path d="M14.4 4.14C9.6.6 4.58.22.98.58v13h14.86c8.52.84 6.48-2.7 6.48-2.7.4-1.03.24-2.1-.48-3.2.72-3.07-3.6-3.07-5.64-3.54-.32-.08-.92-.08-1.8 0z"/>
      <ellipse fill="#FFF" cx="12.48" cy="13.24" rx="2.76" ry="2.72"/>
    </g>
    <path d="M75.16 192.88s3.36-2.24 5.4-2.48c1.56-.24 1.92-.12 1.92-.12h.12c.24.12 1.44.83 1.56 1.77 0 .12-.12.36-.24.36l-1.32 1-.96-.7s-.12 0-.12-.1c-.24 0-1.32-.1-3 1-2.04 1.6-3.36-.6-3.36-.6zM65 193c3.04-.07 4.92.75 5.64 2.5H65V193z" fill="#444A59" fillRule="nonzero"/>
    <path d="M73 180.6h.48c4.44 0 7.92 3.54 7.92 7.8v.58" stroke="#444A59" stroke-width="1.2"/>
    <path d="M73.12 183.55h.24c2.88 0 5.16 2.24 5.16 5.08v.35m-5.4-2.95h.12c1.56 0 2.76 1.18 2.76 2.72v.23" stroke="#444A59" stroke-width="1.2"/>
    <g transform="translate(22 181)">
      <path d="M0 3.6l3.43 6.42s6.63-5.25 16.46-.1l3.6-6.3c-.9-.6-11.3-7.83-23.6 0zm6.16.28l4.35 8.75" stroke="#444A59" stroke-width="1.4"/>
      <ellipse fill="#444A59" fillRule="nonzero" cx="10.86" cy="13.25" rx="1.71" ry="1.75"/>
    </g>
    <path d="M68.08 242.02c-2.4-2.1-3.53-3.55-3.44-4.36.15-1.22 1.8-2.68.9-4.17-.92-1.5-2.24-2.4-1.7-4 .54-1.6 2.1-2 2.38-2.8.28-.8-1.17-2.7-.4-3.8.52-.8 1.27-1.4 2.26-1.9" stroke="#444A59" stroke-width="1.4"/>
    <g transform="translate(181.6 99)">
      <circle stroke="#444A59" stroke-width="1.2" cx="9" cy="14" r="9"/>
      <path d="M8.6 5.5v2m-6.1 6.1h-2m17 0h-2M3 8l1.45 1.38M15 8l-1.4 1.4m-7.1-.9l3 6" stroke="#444A59" stroke-width="1.2"/>
      <path fill="#444A59" d="M3.57 5.62L1 4.62l1-.56L1 2.2l1.34-.7 1.04 1.96L4.44 3"/>
      <circle fill="#444A59" cx="9" cy="14" r="2"/>
    </g>
    <path d="M61.48 109.7c-1.44 4.97.46 10.3 4.7 13.23.65.44 1.4.68 2.2.68h9.25c.78 0 1.54-.2 2.18-.6 4.3-2.9 6.2-8.2 4.8-13.2-1.4-4.9-5.1-8.6-11.5-8.6-6.3 0-10 3.7-11.5 8.7zM73 105c3.64 0 6.3 2.98 7.05 5-8.84 2.24-14.06.02-14.1 0 1-2.66 3.43-5 7.06-5zm-8 9c-.6.76 1.46 4.96 4 6h2c-.88-4.3-5.27-6.92-6-6zm16 0c.6.76-1.46 4.96-4 6h-3c.88-4.3 6.27-6.92 7-6z" stroke="#444A59" stroke-width="1.2" stroke-linecap="round" stroke-linejoin="round"/>
  </g>
</svg>
